<svg width="12" height="8" viewBox="0 0 12 8" fill="none" xmlns="http://www.w3.org/2000/svg">
<path d="M11.1404 1.10401L10.2052 0.188643C10.0774 0.0636065 9.92071 -9.15527e-05 9.73751 -9.15527e-05C9.55431 -9.15527e-05 9.39762 0.0636065 9.26986 0.188643L4.75491 4.61448L2.73246 2.62804C2.6047 2.50301 2.44802 2.43931 2.26482 2.43931C2.08162 2.43931 1.92493 2.50301 1.79717 2.62804L0.85947 3.54341C0.731711 3.66844 0.666626 3.82179 0.666626 4.00109C0.666626 4.18039 0.731711 4.33373 0.85947 4.45877L3.35197 6.89581L4.28727 7.81117C4.41502 7.93621 4.57171 7.99991 4.75491 7.99991C4.93811 7.99991 5.0948 7.93621 5.22256 7.81117L6.15785 6.89581L11.1404 2.02173C11.2682 1.89669 11.3333 1.74335 11.3333 1.56405C11.3333 1.38239 11.2706 1.2314 11.1404 1.10401Z" fill="#181940"/>
</svg>
